<?xml version="1.0" encoding="UTF-8"?>
<svg version="1.1" xmlns="http://www.w3.org/2000/svg" width="167" height="94">
<path d="M0 0 C55.11 0 110.22 0 167 0 C167 31.02 167 62.04 167 94 C111.89 94 56.78 94 0 94 C0 62.98 0 31.96 0 0 Z " fill="#FCFBFB" transform="translate(0,0)"/>
<path d="M0 0 C0.5724646 0.71422119 0.5724646 0.71422119 1.15649414 1.44287109 C3.59819648 3.50527045 5.33162016 3.58226364 8.49609375 3.9140625 C9.60364014 4.03483154 10.71118652 4.15560059 11.85229492 4.2800293 C13.62697144 4.45078979 13.62697144 4.45078979 15.4375 4.625 C16.64059814 4.74979736 17.84369629 4.87459473 19.08325195 5.00317383 C29.37514567 6.03147614 39.66433039 6.65822757 50 7 C50 6.34 50 5.68 50 5 C49.32533691 4.94465088 48.65067383 4.88930176 47.95556641 4.83227539 C44.84530235 4.57658987 41.73515138 4.31955237 38.625 4.0625 C37.56410156 3.97548828 36.50320312 3.88847656 35.41015625 3.79882812 C28.9329648 3.26237362 22.4645139 2.67251944 16 2 C16 1.34 16 0.68 16 0 C24.10564176 -0.12835376 32.10743886 0.24733148 40.1875 0.875 C41.31091797 0.95363281 42.43433594 1.03226563 43.59179688 1.11328125 C59.4000147 2.32001544 59.4000147 2.32001544 63.5 6.625 C63.995 7.40875 64.49 8.1925 65 9 C62.03824877 8.38722388 60.61941217 7.74627478 58 6 C56.34450469 5.61500109 54.6777567 5.27206865 53 5 C53.495 6.485 53.495 6.485 54 8 C54.57032959 8.05534912 55.14065918 8.11069824 55.72827148 8.16772461 C58.29848753 8.41973743 60.86797631 8.67852728 63.4375 8.9375 C64.33533203 9.02451172 65.23316406 9.11152344 66.15820312 9.20117188 C67.01220703 9.28818359 67.86621094 9.37519531 68.74609375 9.46484375 C69.53685303 9.543396 70.3276123 9.62194824 71.14233398 9.70288086 C73 10 73 10 74 11 C74 13.97 74 16.94 74 20 C67.4 20 60.8 20 54 20 C53.34 18.68 52.68 17.36 52 16 C45.64463764 12.3944931 37.28642722 11.90502426 30.1875 10.875 C28.53911133 10.62169922 28.53911133 10.62169922 26.85742188 10.36328125 C20.36474889 9.39148459 13.90779192 8.68400514 7.35668945 8.25048828 C5 8 5 8 3 7 C3 15.58 3 24.16 3 33 C7.32205927 29.62923704 7.32205927 29.62923704 10.4375 25.75 C13 23 13 23 16.3125 22.625 C17.199375 22.74875 18.08625 22.8725 19 23 C16.89635166 26.27234186 14.83700319 29.21317395 12.1875 32.0625 C9.80346091 34.71817037 9.80346091 34.71817037 9.8125 37.4375 C11.30064957 40.64877012 13.3312953 42.95857844 15.72265625 45.546875 C17 47 17 47 17 48 C13.8125 48.375 13.8125 48.375 10 48 C8.2856382 46.04072937 6.61594832 44.04119788 5 42 C2.28694223 41.49620971 2.28694223 41.49620971 0 42 C-0.33 43.98 -0.66 45.96 -1 48 C-1.99 48 -2.98 48 -4 48 C-4 40.33333333 -4 32.66666667 -4 25 C-4.01160156 23.86949219 -4.02320312 22.73898438 -4.03515625 21.57421875 C-4.04417969 20.29160156 -4.05320312 19.00898437 -4.0625 17.6875 C-4.07410156 16.41261719 -4.08570312 15.13773438 -4.09765625 13.82421875 C-3.84810127 4.05164557 -3.84810127 4.05164557 -1.4375 1.0625 C-0.7259375 0.5365625 -0.7259375 0.5365625 0 0 Z " fill="#F3C031" transform="translate(32,17)"/>
<path d="M0 0 C2.55884169 2.22507973 3.42189979 3.67511936 4 7 C4.01549916 9.02638444 3.9682213 11.05365051 3.87890625 13.078125 C3.83056641 14.23828125 3.78222656 15.3984375 3.73242188 16.59375 C3.67634766 17.8003125 3.62027344 19.006875 3.5625 20.25 C3.51029297 21.47203125 3.45808594 22.6940625 3.40429688 23.953125 C3.27470786 26.96901481 3.13974424 29.98456646 3 33 C5.90423038 30.77712816 8.36005119 28.76344222 10.4375 25.75 C13 23 13 23 16.3125 22.625 C17.199375 22.74875 18.08625 22.8725 19 23 C16.89635166 26.27234186 14.83700319 29.21317395 12.1875 32.0625 C9.80346091 34.71817037 9.80346091 34.71817037 9.8125 37.4375 C11.30064957 40.64877012 13.3312953 42.95857844 15.72265625 45.546875 C17 47 17 47 17 48 C13.8125 48.375 13.8125 48.375 10 48 C8.2856382 46.04072937 6.61594832 44.04119788 5 42 C2.28694223 41.49620971 2.28694223 41.49620971 0 42 C-0.33 43.98 -0.66 45.96 -1 48 C-1.99 48 -2.98 48 -4 48 C-4 40.33333333 -4 32.66666667 -4 25 C-4.01160156 23.86949219 -4.02320312 22.73898438 -4.03515625 21.57421875 C-4.04417969 20.29160156 -4.05320312 19.00898437 -4.0625 17.6875 C-4.07410156 16.41261719 -4.08570312 15.13773438 -4.09765625 13.82421875 C-3.84810127 4.05164557 -3.84810127 4.05164557 -1.4375 1.0625 C-0.7259375 0.5365625 -0.7259375 0.5365625 0 0 Z " fill="#F5BB1A" transform="translate(32,17)"/>
<path d="M0 0 C0.71225361 0.00085602 1.42450722 0.00171204 2.15834427 0.00259399 C10.93891999 0.01393545 19.7194624 0.03393877 28.5 0.0625 C28.5 1.0525 28.5 2.0425 28.5 3.0625 C-8.13 3.0625 -44.76 3.0625 -82.5 3.0625 C-82.5 2.4025 -82.5 1.7425 -82.5 1.0625 C-54.99787278 0.32138341 -27.51102976 -0.03330129 0 0 Z " fill="#85817F" transform="translate(110.5,67.9375)"/>
<path d="M0 0 C0.95519531 0.13277344 1.91039063 0.26554687 2.89453125 0.40234375 C9.93333065 1.36377497 16.93407919 2.2415485 24.0234375 2.75390625 C26 3 26 3 27 4 C27 5.65 27 7.3 27 9 C17.1 9 7.2 9 -3 9 C-3 7.02 -3 5.04 -3 3 C-2.01 3 -1.02 3 0 3 C0 2.01 0 1.02 0 0 Z " fill="#7D7E81" transform="translate(111,29)"/>
<path d="M0 0 C0.80115234 -0.00128906 1.60230469 -0.00257812 2.42773438 -0.00390625 C3.26498047 -0.00003906 4.10222656 0.00382812 4.96484375 0.0078125 C5.80595703 0.00394531 6.64707031 0.00007813 7.51367188 -0.00390625 C13.77571693 0.00618568 13.77571693 0.00618568 14.90234375 1.1328125 C15.04427712 4.13612268 14.94470753 7.12498384 14.90234375 10.1328125 C9.62234375 10.1328125 4.34234375 10.1328125 -1.09765625 10.1328125 C-1.09765625 8.8128125 -1.09765625 7.4928125 -1.09765625 6.1328125 C-2.41765625 6.1328125 -3.73765625 6.1328125 -5.09765625 6.1328125 C-5.42765625 4.4828125 -5.75765625 2.8328125 -6.09765625 1.1328125 C-3.81874592 -0.00664266 -2.52983521 0.00387036 0 0 Z " fill="#F7BB0A" transform="translate(91.09765625,26.8671875)"/>
<path d="M0 0 C0.99 0 1.98 0 3 0 C3 1.65 3 3.3 3 5 C2.34 5 1.68 5 1 5 C1.48855469 5.67804687 1.97710938 6.35609375 2.48046875 7.0546875 C4.33309866 10.64564626 4.3679911 13.10402986 4.3125 17.125 C4.30863281 18.34445313 4.30476563 19.56390625 4.30078125 20.8203125 C4 24 4 24 2 27 C1.54605448 29.27912938 1.54605448 29.27912938 1.375 31.6875 C1.30023437 32.49574219 1.22546875 33.30398437 1.1484375 34.13671875 C1.09945313 34.75160156 1.05046875 35.36648437 1 36 C2.65 36.33 4.3 36.66 6 37 C4.02 37.495 4.02 37.495 2 38 C1.67 39.98 1.34 41.96 1 44 C0.01 44 -0.98 44 -2 44 C-2.05791844 40.87507749 -2.09356746 37.75029234 -2.125 34.625 C-2.14175781 33.73554687 -2.15851562 32.84609375 -2.17578125 31.9296875 C-2.18222656 31.07890625 -2.18867188 30.228125 -2.1953125 29.3515625 C-2.20578613 28.56604004 -2.21625977 27.78051758 -2.22705078 26.97119141 C-2 25 -2 25 0 23 C0.27787668 20.57402049 0.27787668 20.57402049 0.1953125 17.7734375 C0.18886719 16.7421875 0.18242187 15.7109375 0.17578125 14.6484375 C0.15902344 13.56820312 0.14226563 12.48796875 0.125 11.375 C0.11597656 10.28703125 0.10695313 9.1990625 0.09765625 8.078125 C0.07403409 5.38519848 0.04109556 2.69270745 0 0 Z " fill="#EABC41" transform="translate(30,21)"/>
<path d="M0 0 C2.55884169 2.22507973 3.42189979 3.67511936 4 7 C4.01549916 9.02638444 3.9682213 11.05365051 3.87890625 13.078125 C3.83056641 14.23828125 3.78222656 15.3984375 3.73242188 16.59375 C3.67634766 17.8003125 3.62027344 19.006875 3.5625 20.25 C3.51029297 21.47203125 3.45808594 22.6940625 3.40429688 23.953125 C3.27470786 26.96901481 3.13974424 29.98456646 3 33 C3.66 33.33 4.32 33.66 5 34 C3.68 34 2.36 34 1 34 C1 35.98 1 37.96 1 40 C0.34 40 -0.32 40 -1 40 C-1.05395478 38.37536158 -1.09277195 36.75021459 -1.125 35.125 C-1.14820313 34.22007813 -1.17140625 33.31515625 -1.1953125 32.3828125 C-1 30 -1 30 1 28 C1.24377883 24.64255888 1.24377883 24.64255888 1.125 20.875 C1.09792969 18.95300781 1.09792969 18.95300781 1.0703125 16.9921875 C1.04710937 16.00476563 1.02390625 15.01734375 1 14 C0.34 13.67 -0.32 13.34 -1 13 C-1 11.68 -1 10.36 -1 9 C-0.34 9 0.32 9 1 9 C1 7.35 1 5.7 1 4 C0.01 4 -0.98 4 -2 4 C-1.9278125 4.73863281 -1.855625 5.47726563 -1.78125 6.23828125 C-1.14588867 13.18313352 -0.87647699 20.02781245 -1 27 C-1.66 27.33 -2.32 27.66 -3 28 C-4.19166172 24.42501484 -4.1325072 21.51861586 -4.125 17.75 C-4.12757812 16.46609375 -4.13015625 15.1821875 -4.1328125 13.859375 C-3.79294595 3.98325298 -3.79294595 3.98325298 -1.4375 1.0625 C-0.7259375 0.5365625 -0.7259375 0.5365625 0 0 Z " fill="#EAB62F" transform="translate(32,17)"/>
<path d="M0 0 C20.79 0 41.58 0 63 0 C63 0.99 63 1.98 63 3 C48.48 3 33.96 3 19 3 C19 2.34 19 1.68 19 1 C12.73 1 6.46 1 0 1 C0 0.67 0 0.34 0 0 Z " fill="#AA9F95" transform="translate(76,68)"/>
<path d="M0 0 C0.99 0 1.98 0 3 0 C3 4.95 3 9.9 3 15 C-1.22999675 13.94250081 -1.54930356 13.79967512 -3.75 10.4375 C-4.17796875 9.79683594 -4.6059375 9.15617187 -5.046875 8.49609375 C-5.36140625 8.00238281 -5.6759375 7.50867187 -6 7 C-6.33 9.64 -6.66 12.28 -7 15 C-7.66 15 -8.32 15 -9 15 C-9 10.38 -9 5.76 -9 1 C-5 2 -5 2 -2.75 5.0625 C-1.88375 6.5165625 -1.88375 6.5165625 -1 8 C-0.67 5.36 -0.34 2.72 0 0 Z " fill="#1D1D1D" transform="translate(120,40)"/>
<path d="M0 0 C0.99 0 1.98 0 3 0 C3 1.98 3 3.96 3 6 C4.65 6 6.3 6 8 6 C8 4.02 8 2.04 8 0 C8.99 0 9.98 0 11 0 C11 4.95 11 9.9 11 15 C10.01 15 9.02 15 8 15 C8 13.02 8 11.04 8 9 C6.35 9 4.7 9 3 9 C3 10.98 3 12.96 3 15 C2.01 15 1.02 15 0 15 C0 10.05 0 5.1 0 0 Z " fill="#1D1B1D" transform="translate(97,40)"/>
<path d="M0 0 C4.53189151 0.51304432 6.0508612 2.26867734 9.3125 5.375 C8.3225 5.705 7.3325 6.035 6.3125 6.375 C4.96849167 5.38939389 3.63642972 4.38741685 2.3125 3.375 C-0.33684822 2.66066879 -0.33684822 2.66066879 -2.6875 2.375 C-2.3575 3.365 -2.0275 4.355 -1.6875 5.375 C1.2825 5.87 1.2825 5.87 4.3125 6.375 C4.3125 6.705 4.3125 7.035 4.3125 7.375 C2.0025 7.705 -0.3075 8.035 -2.6875 8.375 C-2.3575 10.025 -2.0275 11.675 -1.6875 13.375 C-0.3675 13.375 0.9525 13.375 2.3125 13.375 C2.6425 14.365 2.9725 15.355 3.3125 16.375 C1.6625 16.705 0.0125 17.035 -1.6875 17.375 C-1.92210938 16.75109375 -2.15671875 16.1271875 -2.3984375 15.484375 C-4.05573075 12.77244059 -5.3016599 12.48524003 -8.3125 11.625 C-9.12976563 11.38265625 -9.94703125 11.1403125 -10.7890625 10.890625 C-11.41554688 10.72046875 -12.04203125 10.5503125 -12.6875 10.375 C-12.6875 10.045 -12.6875 9.715 -12.6875 9.375 C-11.883125 9.25125 -11.07875 9.1275 -10.25 9 C-9.404375 8.79375 -8.55875 8.5875 -7.6875 8.375 C-7.3575 7.715 -7.0275 7.055 -6.6875 6.375 C-7.3475 6.045 -8.0075 5.715 -8.6875 5.375 C-7.3675 5.375 -6.0475 5.375 -4.6875 5.375 C-4.543125 4.735625 -4.39875 4.09625 -4.25 3.4375 C-3.41835811 0.38814641 -3.22601395 0.45014148 0 0 Z " fill="#F2BC27" transform="translate(87.6875,19.625)"/>
<path d="M0 0 C1.21816406 0.03480469 1.21816406 0.03480469 2.4609375 0.0703125 C3.68683594 0.09738281 3.68683594 0.09738281 4.9375 0.125 C5.87722656 0.15980469 5.87722656 0.15980469 6.8359375 0.1953125 C6.8359375 1.1853125 6.8359375 2.1753125 6.8359375 3.1953125 C3.75976562 3.48828125 3.75976562 3.48828125 0.68359375 3.78125 C0.07386719 3.91789062 -0.53585938 4.05453125 -1.1640625 4.1953125 C-1.4940625 4.8553125 -1.8240625 5.5153125 -2.1640625 6.1953125 C-1.0503125 6.1540625 0.0634375 6.1128125 1.2109375 6.0703125 C4.8359375 6.1953125 4.8359375 6.1953125 6.8359375 8.1953125 C7.0859375 10.6953125 7.0859375 10.6953125 6.8359375 13.1953125 C4.8359375 15.1953125 4.8359375 15.1953125 2.671875 15.390625 C1.45371094 15.35582031 1.45371094 15.35582031 0.2109375 15.3203125 C-0.60632813 15.30226563 -1.42359375 15.28421875 -2.265625 15.265625 C-2.89210938 15.24242187 -3.51859375 15.21921875 -4.1640625 15.1953125 C-4.1640625 14.2053125 -4.1640625 13.2153125 -4.1640625 12.1953125 C-1.5240625 12.1953125 1.1159375 12.1953125 3.8359375 12.1953125 C3.8359375 11.2053125 3.8359375 10.2153125 3.8359375 9.1953125 C2.8871875 9.2365625 1.9384375 9.2778125 0.9609375 9.3203125 C-2.1640625 9.1953125 -2.1640625 9.1953125 -4.1640625 7.1953125 C-4.4140625 4.6953125 -4.4140625 4.6953125 -4.1640625 2.1953125 C-2.1640625 0.1953125 -2.1640625 0.1953125 0 0 Z " fill="#1A1A1A" transform="translate(88.1640625,39.8046875)"/>
<path d="M0 0 C0.66 0 1.32 0 2 0 C3.00460531 2.12282669 4.00355602 4.24833021 5 6.375 C5.556875 7.55835938 6.11375 8.74171875 6.6875 9.9609375 C8 13 8 13 8 15 C7.01 15 6.02 15 5 15 C5 14.34 5 13.68 5 13 C2.36 13 -0.28 13 -3 13 C-3 13.66 -3 14.32 -3 15 C-3.99 15 -4.98 15 -6 15 C-4.40109514 9.80355921 -2.25861997 4.93387858 0 0 Z " fill="#1E1E1E" transform="translate(131,40)"/>
<path d="M0 0 C0.99 0 1.98 0 3 0 C3.33 1.32 3.66 2.64 4 4 C4.6496875 3.01 4.6496875 3.01 5.3125 2 C5.869375 1.34 6.42625 0.68 7 0 C7.99 0 8.98 0 10 0 C9.690625 0.5775 9.38125 1.155 9.0625 1.75 C7.57663651 4.75670471 7.57663651 4.75670471 7 8 C8.89229266 10.63624434 8.89229266 10.63624434 11 13 C11 13.66 11 14.32 11 15 C8.11424181 14.60196439 7.17810487 14.20990931 5.25 11.9375 C4.8375 11.298125 4.425 10.65875 4 10 C3.67 11.65 3.34 13.3 3 15 C2.01 15 1.02 15 0 15 C0 10.05 0 5.1 0 0 Z " fill="#A18C69" transform="translate(53,40)"/>
<path d="M0 0 C6.47630923 -0.36658354 6.47630923 -0.36658354 8.7578125 1.23046875 C10 3 10 3 10.00390625 5.15625 C9.85824219 5.9296875 9.71257812 6.703125 9.5625 7.5 C8.80409513 11.43395003 8.80409513 11.43395003 11 15 C8.625 14.6875 8.625 14.6875 6 14 C5.34 13.01 4.68 12.02 4 11 C3.67 12.32 3.34 13.64 3 15 C2.01 15 1.02 15 0 15 C0 12.36 0 9.72 0 7 C2.31 7 4.62 7 7 7 C7 5.68 7 4.36 7 3 C4.69 3 2.38 3 0 3 C0 2.01 0 1.02 0 0 Z " fill="#191817" transform="translate(66,40)"/>
<path d="M0 0 C0.97582031 0.10183594 1.95164063 0.20367188 2.95703125 0.30859375 C3.69308594 0.39238281 4.42914063 0.47617187 5.1875 0.5625 C5.5175 2.2125 5.8475 3.8625 6.1875 5.5625 C-0.0825 5.5625 -6.3525 5.5625 -12.8125 5.5625 C-12.1525 3.9125 -11.4925 2.2625 -10.8125 0.5625 C-7.17908607 -0.78669515 -3.8051018 -0.4126014 0 0 Z " fill="#020203" transform="translate(131.8125,31.4375)"/>
<path d="M0 0 C0.99 0 1.98 0 3 0 C3 0.66 3 1.32 3 2 C3.66 2 4.32 2 5 2 C5.309375 3.2065625 5.309375 3.2065625 5.625 4.4375 C6.07875 5.283125 6.5325 6.12875 7 7 C10.05272465 7.89830839 10.05272465 7.89830839 13 8 C13 8.99 13 9.98 13 11 C10.36 11 7.72 11 5 11 C4.67 11.99 4.34 12.98 4 14 C2.68 14 1.36 14 0 14 C0 9.38 0 4.76 0 0 Z " fill="#939393" transform="translate(79,41)"/>
<path d="M0 0 C6.75 0.75 6.75 0.75 9 3 C11.8595077 3.42645229 11.8595077 3.42645229 15.0625 3.5625 C20.90277778 3.90277778 20.90277778 3.90277778 22 5 C22.14310287 8.6691577 22.04221662 12.32715441 22 16 C15.07 16 8.14 16 1 16 C1 15.67 1 15.34 1 15 C7.6 15 14.2 15 21 15 C20.67 12.03 20.34 9.06 20 6 C13.73 5.34 7.46 4.68 1 4 C0.67 2.68 0.34 1.36 0 0 Z " fill="#E7C876" transform="translate(85,22)"/>
<path d="M0 0 C7.39626965 -0.31178654 14.70097416 0.21628124 22.0625 0.875 C23.47341919 0.99270752 23.47341919 0.99270752 24.9128418 1.11279297 C25.79883057 1.19674316 26.68481934 1.28069336 27.59765625 1.3671875 C28.39695557 1.44050293 29.19625488 1.51381836 30.01977539 1.58935547 C32 2 32 2 34 4 C22.59993525 4.43291385 11.32795794 3.13702941 0 2 C0 1.34 0 0.68 0 0 Z " fill="#383735" transform="translate(48,17)"/>
<path d="M0 0 C2.14517925 3.47035825 2.17412457 6.04785878 1.9765625 10.078125 C1.925 11.23828125 1.8734375 12.3984375 1.8203125 13.59375 C1.75585938 14.8003125 1.69140625 16.006875 1.625 17.25 C1.56828125 18.47203125 1.5115625 19.6940625 1.453125 20.953125 C1.31173944 23.9693502 1.16033265 26.9847323 1 30 C1.66 30.33 2.32 30.66 3 31 C1.68 31 0.36 31 -1 31 C-1 32.98 -1 34.96 -1 37 C-1.66 37 -2.32 37 -3 37 C-3.05395478 35.37536158 -3.09277195 33.75021459 -3.125 32.125 C-3.15980469 30.76761719 -3.15980469 30.76761719 -3.1953125 29.3828125 C-3 27 -3 27 -1 25 C-0.62826984 22.3817233 -0.62826984 22.3817233 -0.5859375 19.3359375 C-0.54726563 18.21445312 -0.50859375 17.09296875 -0.46875 15.9375 C-0.4378125 14.761875 -0.406875 13.58625 -0.375 12.375 C-0.33632813 11.19164062 -0.29765625 10.00828125 -0.2578125 8.7890625 C-0.16331155 5.85953309 -0.07775442 2.93001403 0 0 Z " fill="#E9BF50" transform="translate(34,20)"/>
<path d="M0 0 C0.99 0 1.98 0 3 0 C3 1.65 3 3.3 3 5 C2.34 5 1.68 5 1 5 C1.495 5.598125 1.99 6.19625 2.5 6.8125 C4.69805475 11.48336634 4.24023041 15.9195716 4 21 C3.01 20.67 2.02 20.34 1 20 C-0.03026944 13.30324864 -0.10152799 6.7685324 0 0 Z " fill="#F6BB12" transform="translate(30,21)"/>
<path d="M0 0 C4.27210984 1.06802746 4.84168743 1.43878426 7 5 C7 5.66 7 6.32 7 7 C6.01 7.33 5.02 7.66 4 8 C3.67 7.34 3.34 6.68 3 6 C2.67 8.64 2.34 11.28 2 14 C1.34 14 0.68 14 0 14 C0 9.38 0 4.76 0 0 Z " fill="#0D0D0E" transform="translate(111,41)"/>
<path d="M0 0 C0.99 0 1.98 0 3 0 C3 4.95 3 9.9 3 15 C2.01 15 1.02 15 0 15 C-0.125 12.125 -0.125 12.125 0 9 C0.66 8.34 1.32 7.68 2 7 C-0.31 7 -2.62 7 -5 7 C-5 6.67 -5 6.34 -5 6 C-3.35 6 -1.7 6 0 6 C0 4.02 0 2.04 0 0 Z " fill="#353434" transform="translate(105,40)"/>
<path d="M0 0 C0.33 0 0.66 0 1 0 C1 2.97 1 5.94 1 9 C-4.28 9 -9.56 9 -15 9 C-15 8.67 -15 8.34 -15 8 C-11.04 8 -7.08 8 -3 8 C-3.66 7.01 -4.32 6.02 -5 5 C-5 4.01 -5 3.02 -5 2 C-3.68 2.33 -2.36 2.66 -1 3 C-0.67 2.01 -0.34 1.02 0 0 Z " fill="#F6B91D" transform="translate(105,28)"/>
<path d="M0 0 C0.99 0 1.98 0 3 0 C2.34 1.98 1.68 3.96 1 6 C-2.72915017 6.02912348 -6.4582709 6.04684037 -10.1875 6.0625 C-11.77014648 6.07506836 -11.77014648 6.07506836 -13.38476562 6.08789062 C-14.91713867 6.09272461 -14.91713867 6.09272461 -16.48046875 6.09765625 C-17.41785889 6.10289307 -18.35524902 6.10812988 -19.32104492 6.11352539 C-21.98049477 6.00082657 -24.40920573 5.59376649 -27 5 C-27 4.67 -27 4.34 -27 4 C-13.635 4.495 -13.635 4.495 0 5 C0 4.34 0 3.68 0 3 C-1.32 2.67 -2.64 2.34 -4 2 C-2.68 2 -1.36 2 0 2 C0 1.34 0 0.68 0 0 Z " fill="#D0B35E" transform="translate(82,19)"/>
<path d="M0 0 C0.66 0 1.32 0 2 0 C5 5.75 5 5.75 5 8 C4.34 8 3.68 8 3 8 C3 8.66 3 9.32 3 10 C1.68 10 0.36 10 -1 10 C-2.15837626 5.94568308 -1.83691257 3.78187881 0 0 Z " fill="#3C3C3C" transform="translate(131,40)"/>
<path d="M0 0 C1.66611905 -0.042721 3.33382885 -0.04063832 5 0 C6 1 6 1 6.0625 3.5625 C6.041875 4.366875 6.02125 5.17125 6 6 C3.625 6.625 3.625 6.625 1 7 C0.34 6.34 -0.32 5.68 -1 5 C-0.625 2.375 -0.625 2.375 0 0 Z " fill="#3C3C3D" transform="translate(101,58)"/>
<path d="M0 0 C1.36125 0.12375 1.36125 0.12375 2.75 0.25 C-1.39285714 6.67857143 -1.39285714 6.67857143 -4.25 9.25 C-4.25 7.93 -4.25 6.61 -4.25 5.25 C-5.24 4.92 -6.23 4.59 -7.25 4.25 C-4.83923194 1.28290085 -3.90322061 0.30024774 0 0 Z " fill="#F6BD2D" transform="translate(48.25,39.75)"/>
<path d="M0 0 C1.95825873 -0.02694851 3.91662226 -0.04637218 5.875 -0.0625 C6.96554688 -0.07410156 8.05609375 -0.08570312 9.1796875 -0.09765625 C12 0 12 0 14 1 C13.67 1.99 13.34 2.98 13 4 C11.02 4 9.04 4 7 4 C7 3.34 7 2.68 7 2 C4.69 2 2.38 2 0 2 C0 1.34 0 0.68 0 0 Z " fill="#F8B914" transform="translate(67,25)"/>
<path d="M0 0 C4.95 0.33 9.9 0.66 15 1 C10.5 4.375 10.5 4.375 6.25 4.1875 C5.05117188 4.14689453 5.05117188 4.14689453 3.828125 4.10546875 C3.22484375 4.07066406 2.6215625 4.03585938 2 4 C1.34 2.68 0.68 1.36 0 0 Z " fill="#BC9239" transform="translate(35,21)"/>
<path d="M0 0 C0.99 0 1.98 0 3 0 C3 1.65 3 3.3 3 5 C1 5 -1 5 -3 5 C-3 5.66 -3 6.32 -3 7 C-4.32 7 -5.64 7 -7 7 C-7.33 8.32 -7.66 9.64 -8 11 C-8 9.35 -8 7.7 -8 6 C-6.68 6 -5.36 6 -4 6 C-3.71125 5.38125 -3.4225 4.7625 -3.125 4.125 C-2 2 -2 2 0 0 Z " fill="#F5BC20" transform="translate(41,45)"/>
<path d="M0 0 C6.41868512 -0.3633218 6.41868512 -0.3633218 9 1.25 C10 3 10 3 9.6875 5.1875 C9.3471875 6.0846875 9.3471875 6.0846875 9 7 C8.34 6.67 7.68 6.34 7 6 C7 5.01 7 4.02 7 3 C4.69 3 2.38 3 0 3 C0 2.01 0 1.02 0 0 Z " fill="#1E1E20" transform="translate(66,40)"/>
<path d="M0 0 C4.53189151 0.51304432 6.0508612 2.26867734 9.3125 5.375 C8.3225 5.705 7.3325 6.035 6.3125 6.375 C4.96849167 5.38939389 3.63642972 4.38741685 2.3125 3.375 C-0.33684822 2.66066879 -0.33684822 2.66066879 -2.6875 2.375 C-2.6875 3.365 -2.6875 4.355 -2.6875 5.375 C-3.3475 5.375 -4.0075 5.375 -4.6875 5.375 C-3.58680287 0.50048412 -3.58680287 0.50048412 0 0 Z " fill="#352C23" transform="translate(87.6875,19.625)"/>
<path d="M0 0 C2.475 0.99 2.475 0.99 5 2 C5.33 1.34 5.66 0.68 6 0 C6.66 0 7.32 0 8 0 C8 2.31 8 4.62 8 7 C7.34 7 6.68 7 6 7 C5.67 6.34 5.34 5.68 5 5 C4.01 4.67 3.02 4.34 2 4 C1.34 4.99 0.68 5.98 0 7 C0 4.69 0 2.38 0 0 Z " fill="#505050" transform="translate(90,58)"/>
<path d="M0 0 C1.21816406 0.03480469 1.21816406 0.03480469 2.4609375 0.0703125 C3.68683594 0.09738281 3.68683594 0.09738281 4.9375 0.125 C5.87722656 0.15980469 5.87722656 0.15980469 6.8359375 0.1953125 C6.8359375 1.1853125 6.8359375 2.1753125 6.8359375 3.1953125 C5.37958379 3.41706183 3.92070794 3.62229948 2.4609375 3.8203125 C1.64882812 3.93632813 0.83671875 4.05234375 0 4.171875 C-0.71414062 4.17960937 -1.42828125 4.18734375 -2.1640625 4.1953125 C-2.8240625 3.5353125 -3.4840625 2.8753125 -4.1640625 2.1953125 C-2.1640625 0.1953125 -2.1640625 0.1953125 0 0 Z " fill="#292527" transform="translate(88.1640625,39.8046875)"/>
<path d="M0 0 C0.28875 0.61875 0.5775 1.2375 0.875 1.875 C1.93720042 4.13325765 1.93720042 4.13325765 4 6 C2.68 6 1.36 6 0 6 C0 7.98 0 9.96 0 12 C-0.66 12 -1.32 12 -2 12 C-2.05395478 10.37536158 -2.09277195 8.75021459 -2.125 7.125 C-2.14820312 6.22007813 -2.17140625 5.31515625 -2.1953125 4.3828125 C-2 2 -2 2 0 0 Z " fill="#F8D882" transform="translate(33,45)"/>
<path d="M0 0 C0.33 0 0.66 0 1 0 C1.06058594 0.62648438 1.12117188 1.25296875 1.18359375 1.8984375 C1.26738281 2.71570313 1.35117187 3.53296875 1.4375 4.375 C1.51871094 5.18710937 1.59992187 5.99921875 1.68359375 6.8359375 C1.89090114 9.04272805 1.89090114 9.04272805 3 11 C3.039992 12.99960012 3.04346799 15.00047242 3 17 C2.34 17.33 1.68 17.66 1 18 C-0.2062252 14.38132441 -0.10816918 11.07493749 -0.0625 7.3125 C-0.05798828 6.61060547 -0.05347656 5.90871094 -0.04882812 5.18554688 C-0.03706927 3.45699462 -0.01913454 1.72848635 0 0 Z " fill="#EDD291" transform="translate(28,27)"/>
<path d="M0 0 C1.65 0 3.3 0 5 0 C5 2.31 5 4.62 5 7 C3.35 6.67 1.7 6.34 0 6 C0 4.02 0 2.04 0 0 Z " fill="#565656" transform="translate(126,58)"/>
<path d="M0 0 C0.33 0.66 0.66 1.32 1 2 C1.99 2 2.98 2 4 2 C4 1.34 4 0.68 4 0 C4.66 0 5.32 0 6 0 C6 2.31 6 4.62 6 7 C5.34 7 4.68 7 4 7 C4 6.01 4 5.02 4 4 C3.01 4 2.02 4 1 4 C0.67 4.99 0.34 5.98 0 7 C0 4.69 0 2.38 0 0 Z " fill="#464646" transform="translate(82,58)"/>
<path d="M0 0 C3.35620271 1.38877354 5.07298728 2.91677965 7 6 C7 6.66 7 7.32 7 8 C4.24542282 7.62005832 3.17979426 7.1926367 1.25 5.125 C0 3 0 3 0 0 Z " fill="#27231E" transform="translate(57,47)"/>
<path d="M0 0 C1.32 0.33 2.64 0.66 4 1 C4.33 2.98 4.66 4.96 5 7 C3.35 7 1.7 7 0 7 C0 4.69 0 2.38 0 0 Z " fill="#575859" transform="translate(53,58)"/>
<path d="M0 0 C2.50037734 2.17424117 3.43628586 3.73045798 4 7 C1.69 7 -0.62 7 -3 7 C-1.125 1.125 -1.125 1.125 0 0 Z " fill="#5F5F60" transform="translate(63,58)"/>
<path d="M0 0 C0.99 0.33 1.98 0.66 3 1 C2.6875 3.875 2.6875 3.875 2 7 C1.01 7.66 0.02 8.32 -1 9 C-1.80967438 6.08517222 -2.21845993 4.53886783 -1.0625 1.6875 C-0.711875 1.130625 -0.36125 0.57375 0 0 Z " fill="#D19F1E" transform="translate(31,41)"/>
<path d="M0 0 C0.99 0 1.98 0 3 0 C3 2.64 3 5.28 3 8 C2.01 8 1.02 8 0 8 C0 5.36 0 2.72 0 0 Z " fill="#8B8987" transform="translate(66,47)"/>
<path d="M0 0 C0.99 0 1.98 0 3 0 C1.55746343 3.36591866 -0.33264727 5.51047079 -3 8 C-3.33 7.01 -3.66 6.02 -4 5 C-2.25 2.3125 -2.25 2.3125 0 0 Z " fill="#ECBE54" transform="translate(60,40)"/>
<path d="M0 0 C0.33 0.66 0.66 1.32 1 2 C1.66 2 2.32 2 3 2 C3 3.32 3 4.64 3 6 C2.34 6 1.68 6 1 6 C1 8.64 1 11.28 1 14 C0.67 14 0.34 14 0 14 C0 9.38 0 4.76 0 0 Z " fill="#D8D8D8" transform="translate(81,41)"/>
<path d="M0 0 C1.32 0.33 2.64 0.66 4 1 C3.01 1.495 3.01 1.495 2 2 C2.99 2.66 3.98 3.32 5 4 C4.67 4.99 4.34 5.98 4 7 C2.68 7 1.36 7 0 7 C0 4.66666667 0 2.33333333 0 0 Z " fill="#3F3F3F" transform="translate(134,58)"/>
<path d="M0 0 C1.32 0.33 2.64 0.66 4 1 C3.67 2.98 3.34 4.96 3 7 C2.01 7 1.02 7 0 7 C0 4.69 0 2.38 0 0 Z " fill="#908C85" transform="translate(53,48)"/>
<path d="M0 0 C4.29 0.66 8.58 1.32 13 2 C13 2.33 13 2.66 13 3 C8.71 3 4.42 3 0 3 C0 2.01 0 1.02 0 0 Z " fill="#A9A9AA" transform="translate(111,29)"/>
<path d="M0 0 C2.3431213 0.25561323 4.67843403 0.59270772 7 1 C7.33 1.66 7.66 2.32 8 3 C5.36 3 2.72 3 0 3 C0 2.01 0 1.02 0 0 Z " fill="#F0EFED" transform="translate(85,22)"/>
<path d="M0 0 C1.65 0 3.3 0 5 0 C5.33 0.99 5.66 1.98 6 3 C4.35 3.33 2.7 3.66 1 4 C0.67 2.68 0.34 1.36 0 0 Z " fill="#A57E22" transform="translate(85,33)"/>
<path d="M0 0 C1.35432675 1.31200404 2.68733482 2.64631404 4 4 C4 4.33 4 4.66 4 5 C1.69 5 -0.62 5 -3 5 C-3.33 4.34 -3.66 3.68 -4 3 C-2.68 2.67 -1.36 2.34 0 2 C0 1.34 0 0.68 0 0 Z " fill="#F0C469" transform="translate(45,60)"/>
<path d="M0 0 C1.98 0.495 1.98 0.495 4 1 C4 1.99 4 2.98 4 4 C2.35 4 0.7 4 -1 4 C-0.67 2.68 -0.34 1.36 0 0 Z " fill="#F2F2F2" transform="translate(102,59)"/>
<path d="M0 0 C0.99 0 1.98 0 3 0 C3 1.98 3 3.96 3 6 C2.01 6 1.02 6 0 6 C0 4.02 0 2.04 0 0 Z " fill="#2B2B2B" transform="translate(105,49)"/>
<path d="M0 0 C1.4540625 0.0309375 1.4540625 0.0309375 2.9375 0.0625 C1.4525 2.5375 1.4525 2.5375 -0.0625 5.0625 C-0.3925 4.0725 -0.7225 3.0825 -1.0625 2.0625 C-2.0525 1.7325 -3.0425 1.4025 -4.0625 1.0625 C-3.0625 0.0625 -3.0625 0.0625 0 0 Z " fill="#EAC65F" transform="translate(48.0625,39.9375)"/>
</svg>
